# xmcd CD database file
#
# Track frame offsets:
#	183
#	15000
#	29545
#	44988
#	58888
#	73378
#	89415
#	106013
#	120608
#	134635
#	148640
#	162910
#	177063
#	192853
#	204878
#	219680
#
# Disc length: 3145 seconds
#
# Revision: 1
# Processed by: cddbd v1.5.2PL0 Copyright (c) Steve Scherf et al.
# Submitted via: CDex 1.70beta2
#
DISCID=ed0c4710
DTITLE=Memphis Blues - Memphis Blues 1928-30 CD1
DYEAR=1928
DGENRE=Blues
TTITLE0=How Long - Frank Stokes
TTITLE1=Tain't nobody's bussiness if i do - part 2 - Frank Stokes
TTITLE2=it won't be long now - Frank Stokes
TTITLE3=Right now blues - Frank Stokes
TTITLE4=I'm wild about my lovin' - Jim Jackson
TTITLE5=I'm gonna move to Louisiana - Part 1 - Jim Jackson
TTITLE6=I'm gonna move to Louisiana - Part 2 - Jim Jackson
TTITLE7=This morning she was gone - Jim Jackson
TTITLE8=Kassi Jones - Part 1 -Walter Fury Lewis
TTITLE9=Dry land blues -Walter Fury Lewis
TTITLE10=I will turn your money green -Walter Fury Lewis
TTITLE11=Mistreatin' Mama -Walter Fury Lewis
TTITLE12=Jailhouse blues - Robert Wilkins
TTITLE13=Rolling Stone - Part 1 - Robert Wilkins
TTITLE14=Rolling Stone - Part 2 - Robert Wilkins
TTITLE15=I do blues - Robert Wilkins
EXTD=YEAR: 1928
EXTT0=
EXTT1=
EXTT2=
EXTT3=
EXTT4=
EXTT5=
EXTT6=
EXTT7=
EXTT8=
EXTT9=
EXTT10=
EXTT11=
EXTT12=
EXTT13=
EXTT14=
EXTT15=
PLAYORDER=
